<svg width="512" height="512" viewBox="0 0 512 512" fill="none" xmlns="http://www.w3.org/2000/svg">
<ellipse cx="256.5" cy="250.5" rx="244.5" ry="230.5" fill="#002229"/>
<path d="M484.6 459.2H407.9C469.8 412.9 510 339.2 510 256C510 115.7 396.3 2 256 2C115.7 2 2 115.7 2 256C2 396.3 115.7 510 256 510H484.6C498.6 510 510 498.6 510 484.6C510 470.6 498.6 459.2 484.6 459.2ZM408.4 205.2C436.5 205.2 459.2 227.9 459.2 256C459.2 284.1 436.5 306.8 408.4 306.8C380.3 306.8 357.6 284.1 357.6 256C357.6 227.9 380.3 205.2 408.4 205.2ZM256 52.8C284.1 52.8 306.8 75.5 306.8 103.6C306.8 131.7 284.1 154.4 256 154.4C227.9 154.4 205.2 131.7 205.2 103.6C205.2 75.5 227.9 52.8 256 52.8ZM256 205.2C284.1 205.2 306.8 227.9 306.8 256C306.8 284.1 284.1 306.8 256 306.8C227.9 306.8 205.2 284.1 205.2 256C205.2 227.9 227.9 205.2 256 205.2ZM103.6 306.8C75.5 306.8 52.8 284.1 52.8 256C52.8 227.9 75.5 205.2 103.6 205.2C131.7 205.2 154.4 227.9 154.4 256C154.4 284.1 131.7 306.8 103.6 306.8ZM205.2 408.4C205.2 380.3 227.9 357.6 256 357.6C284.1 357.6 306.8 380.3 306.8 408.4C306.8 436.5 284.1 459.2 256 459.2C227.9 459.2 205.2 436.5 205.2 408.4Z" fill="#FF5D52"/>
</svg>
